#!OML:ASF E:\Steps\Project 1\Capture day 1\Session 2\Subject.ASF
:FULLY-SPECIFIED
:DEGREES
128
root -0.625245 18.8642 18.6745 -160.11 -14.0045 184.052
lowerback -27.2752 -4.79544 -9.09104
upperback 0.104307 -3.84295 0.346202
thorax 15.2318 -2.54164 3.8009
lowerneck -3.17955 -4.91464 -1.08984
upperneck 19.9626 -9.50226 6.29758
head 6.97558 -4.75904 1.46169
rclavicle 4.45278e-014 5.725e-014
rhumerus -42.4568 -18.9814 -74.9756
rradius 31.8192
rwrist -3.34003
rhand -2.43953 -55.9265
rfingers 7.12502
rthumb 23.2518 -84.5426
lclavicle 4.45278e-014 5.725e-014
lhumerus -33.1157 -3.61159 76.9699
lradius 30.7593
lwrist 1.3466
lhand -20.5493 -11.2579
lfingers 7.12502
lthumb 5.80947 18.6425
rfemur -45.8834 0.544814 10.27
rtibia 21.8696
rfoot 3.10644 -12.9698
rtoes -19.2687
lfemur -25.252 -17.547 -13.3349
ltibia 37.9372
lfoot -28.4029 -5.9026
ltoes 8.84557
129
root -0.605429 18.8423 18.5992 -160.058 -14.379 184.054
lowerback -27.3746 -4.88539 -9.16802
upperback -0.0127257 -3.95039 0.380147
thorax 15.1623 -2.59589 3.83185
lowerneck -2.86379 -4.91502 -0.993401
upperneck 19.8803 -9.47282 6.12598
head 6.87931 -4.76414 1.40634
rclavicle -2.0276e-014 -6.36111e-014
rhumerus -43.0763 -18.7927 -74.6911
rradius 31.9793
rwrist -3.46525
rhand -2.59621 -55.9985
rfingers 7.12502
rthumb 23.1014 -84.6336
lclavicle -2.0276e-014 -6.36111e-014
lhumerus -33.4666 -4.2141 77.0932
lradius 31.3339
lwrist 1.64903
lhand -20.5402 -11.0002
lfingers 7.12502
lthumb 5.81833 18.9
rfemur -45.6477 0.819356 9.34954
rtibia 20.2499
rfoot 3.33969 -13.8672
rtoes -19.4714
lfemur -25.0841 -17.8263 -13.1658
ltibia 38.0116
lfoot -28.6986 -6.17516
ltoes 9.22629
130
root -0.582574 18.8228 18.5266 -160.079 -14.6688 183.948
lowerback -27.3994 -4.97583 -9.38973
upperback -0.0529719 -4.00184 0.363423
thorax 15.1432 -2.63462 3.90963
lowerneck -3.65145 -4.90315 -1.30963
upperneck 21.3396 -9.74123 6.20687
head 7.52667 -4.90277 1.40765
rclavicle -3.73715e-014 -3.97569e-014
rhumerus -43.4685 -18.8686 -74.3463
rradius 31.8542
rwrist -3.38274
rhand -2.37003 -55.5597
rfingers 7.12502
rthumb 23.3184 -84.1675
lclavicle -3.73715e-014 -3.97569e-014
lhumerus -33.5863 -4.51145 77.0856
lradius 31.762
lwrist 1.7148
lhand -20.3491 -10.5279
lfingers 7.12502
lthumb 6.00278 19.3671
rfemur -45.267 1.08148 8.33189
rtibia 18.5059
rfoot 3.67149 -14.9748
rtoes -19.6091
lfemur -24.8138 -18.0227 -13.1567
ltibia 38.0952
lfoot -28.9761 -6.3592
ltoes 8.99227
131
root -0.558947 18.8052 18.4591 -160.132 -14.9338 183.895
lowerback -27.3749 -5.03479 -9.54847
upperback -0.0641686 -4.03096 0.344441
thorax 15.1286 -2.65811 3.96284
lowerneck -3.31271 -4.9872 -1.07535
upperneck 20.9732 -9.7887 6.07765
head 7.3306 -4.92727 1.34301
rclavicle -4.35338e-014 1.27222e-014
rhumerus -43.8413 -18.9314 -74.0865
rradius 31.8629
rwrist -3.28722
rhand -2.481 -55.4194
rfingers 7.12502
rthumb 23.212 -84.0405
lclavicle -4.35338e-014 1.27222e-014
lhumerus -33.5581 -4.56465 76.9479
lradius 32.0211
lwrist 1.68002
lhand -19.9234 -10.8196
lfingers 7.12502
lthumb 6.4138 19.0633
rfemur -44.8645 1.48168 7.32037
rtibia 16.811
rfoot 3.66073 -16.2361
rtoes -18.6214
lfemur -24.5113 -18.2148 -13.0943
ltibia 38.0958
lfoot -29.177 -6.55485
ltoes 9.36226
132
root -0.531733 18.7886 18.3907 -160.234 -15.24 183.954
lowerback -27.2704 -5.08555 -9.64844
upperback -0.109134 -4.08626 0.381701
thorax 15.0428 -2.68823 4.04159
lowerneck -3.29871 -5.02232 -0.937393
upperneck 21.1519 -9.88101 5.99397
head 7.38065 -4.97379 1.28318
rclavicle -1.17283e-014 -3.18055e-015
rhumerus -44.4096 -18.9604 -73.7785
rradius 32.054
rwrist -3.18165
rhand -2.97191 -55.0157
rfingers 7.12502
rthumb 22.7409 -83.6955
lclavicle -1.17283e-014 -3.18055e-015
lhumerus -33.6649 -5.01892 76.9484
lradius 32.4087
lwrist 2.00829
lhand -19.8625 -11.2603
lfingers 7.12502
lthumb 6.47253 18.6208
rfemur -44.4489 2.11651 6.37351
rtibia 15.2406
rfoot 3.49925 -17.5784
rtoes -16.8552
lfemur -24.19 -18.4037 -12.8717
ltibia 38.1002
lfoot -29.4871 -6.51733
ltoes 8.48408
133
root -0.499729 18.7738 18.3148 -160.445 -15.6109 184.118
lowerback -27.1468 -5.13141 -9.66911
upperback -0.110951 -4.15427 0.414693
thorax 14.9967 -2.71842 4.0689
lowerneck -3.09451 -5.20637 -0.877901
upperneck 20.8276 -10.084 6.00806
head 7.2445 -5.06884 1.27567
rclavicle -1.68967e-014 1.27222e-014
rhumerus -44.9374 -19.1458 -73.4259
rradius 32.1025
rwrist -3.06208
rhand -2.94743 -54.8255
rfingers 7.12502
rthumb 22.7644 -83.5024
lclavicle -1.68967e-014 1.27222e-014
lhumerus -33.84 -5.67713 76.95
lradius 32.9053
lwrist 2.3064
lhand -20.1061 -11.2366
lfingers 7.12502
lthumb 6.23735 18.6516
rfemur -43.9035 2.82274 5.5985
rtibia 13.6552
rfoot 3.6608 -19.0106
rtoes -17.7393
lfemur -23.7795 -18.5511 -12.5018
ltibia 38.135
lfoot -29.8255 -6.57231
ltoes 7.93682
134
root -0.471481 18.7572 18.2357 -160.554 -15.9384 184.175
lowerback -27.1859 -5.2035 -9.71904
upperback -0.0836542 -4.22491 0.409831
thorax 15.0604 -2.75463 4.05839
lowerneck -3.32285 -5.04971 -0.973688
upperneck 21.0994 -9.92426 6.12054
head 7.37789 -4.98424 1.32629
rclavicle 3.02153e-014 1.43125e-014
rhumerus -45.3337 -19.2472 -73.1266
rradius 32.0784
rwrist -3.05298
rhand -2.48913 -55.2146
rfingers 7.12502
rthumb 23.2042 -83.8367
lclavicle 3.02153e-014 1.43125e-014
lhumerus -33.9772 -6.01763 76.8242
lradius 33.3821
lwrist 2.34591
lhand -19.847 -11.2379
lfingers 7.12502
lthumb 6.48751 18.6427
rfemur -43.5144 3.31876 4.79482
rtibia 12.264
rfoot 3.80805 -20.4607
rtoes -19.6911
lfemur -23.4161 -18.7053 -12.2643
ltibia 38.0921
lfoot -30.0641 -6.95775
ltoes 8.99653
135
root -0.446985 18.7368 18.1581 -160.501 -16.1284 184.053
lowerback -27.3013 -5.28629 -9.90401
upperback -0.119354 -4.26978 0.39606
thorax 15.0878 -2.78938 4.11632
lowerneck -3.38351 -5.10091 -1.23372
upperneck 21.228 -10.036 6.29535
head 7.45701 -5.04295 1.41063
rclavicle 5.88403e-014 3.18055e-014
rhumerus -45.7024 -19.3262 -72.7204
rradius 31.9772
rwrist -3.03405
rhand -2.18919 -55.3237
rfingers 7.12502
rthumb 23.4919 -83.9094
lclavicle 5.88403e-014 3.18055e-014
lhumerus -34.2002 -6.3984 76.7637
lradius 33.8856
lwrist 2.52488
lhand -19.6863 -11.274
lfingers 7.12502
lthumb 6.64267 18.6018
rfemur -43.358 3.41703 4.00741
rtibia 11.0863
rfoot 3.54629 -21.5759
rtoes -19.527
lfemur -23.1351 -18.8303 -12.2561
ltibia 38.027
lfoot -30.2262 -7.28939
ltoes 9.84592
136
root -0.417604 18.7147 18.0761 -160.497 -16.2978 184.026
lowerback -27.3926 -5.31685 -10.0089
upperback -0.159324 -4.27242 0.375972
thorax 15.0874 -2.79842 4.1436
lowerneck -3.62144 -5.07494 -1.23843
upperneck 21.9129 -10.1706 6.3266
head 7.73546 -5.11181 1.38768
rclavicle 5.36719e-014 5.24792e-014
rhumerus -46.0418 -19.5794 -72.2729
rradius 31.745
rwrist -2.85999
rhand -2.25493 -55.1783
rfingers 7.12502
rthumb 23.4289 -83.772
lclavicle 5.36719e-014 5.24792e-014
lhumerus -34.3078 -6.85767 76.6834
lradius 34.2393
lwrist 2.64107
lhand -19.9589 -11.1038
lfingers 7.12502
lthumb 6.37946 18.7802
rfemur -43.1769 3.62517 3.34588
rtibia 9.98698
rfoot 3.14196 -22.7092
rtoes -18.1173
lfemur -22.8094 -18.8853 -12.1346
ltibia 37.9756
lfoot -30.3229 -7.65456
ltoes 10.9683
137
root -0.384507 18.6939 17.9914 -160.52 -16.5199 184.075
lowerback -27.4796 -5.34969 -10.0361
upperback -0.205659 -4.30404 0.358296
thorax 15.0778 -2.81443 4.12093
lowerneck -3.18062 -5.10771 -1.2084
upperneck 21.526 -10.1752 6.40343
head 7.53092 -5.12268 1.43059
rclavicle 2.68359e-014 -1.90833e-014
rhumerus -46.5285 -19.7642 -71.889
rradius 31.6358
rwrist -2.58871
rhand -2.35753 -54.8251
rfingers 7.12502
rthumb 23.3304 -83.4313
lclavicle 2.68359e-014 -1.90833e-014
lhumerus -34.4058 -7.14225 76.533
lradius 34.5917
lwrist 2.66915
lhand -19.9892 -11.0252
lfingers 7.12502
lthumb 6.3502 18.8596
rfemur -43.0437 4.04648 2.70929
rtibia 9.12527
rfoot 3.07122 -23.9282
rtoes -17.9982
lfemur -22.4746 -18.9302 -11.9021
ltibia 37.9052
lfoot -30.4345 -8.10009
ltoes 12.3484
138
root -0.352249 18.6719 17.9076 -160.519 -16.7371 184.08
lowerback -27.5601 -5.41528 -10.0934
upperback -0.243491 -4.37088 0.358994
thorax 15.0841 -2.84913 4.12006
lowerneck -3.01627 -4.99693 -1.33305
upperneck 21.4723 -10.0504 6.59195
head 7.4936 -5.0679 1.5286
rclavicle -1.63003e-014 -1.43125e-014
rhumerus -47.0687 -19.8684 -71.5169
rradius 31.7252
rwrist -2.37502
rhand -2.38359 -54.8528
rfingers 7.12502
rthumb 23.3054 -83.4622
lclavicle -1.63003e-014 -1.43125e-014
lhumerus -34.609 -7.51902 76.4565
lradius 35.1096
lwrist 2.94346
lhand -19.9683 -11.0164
lfingers 7.12502
lthumb 6.37039 18.8678
rfemur -42.9685 4.08618 2.29722
rtibia 8.41087
rfoot 3.39524 -24.6635
rtoes -19.3096
lfemur -22.1344 -18.9826 -11.7112
ltibia 37.8087
lfoot -30.5577 -8.52503
ltoes 13.4141
139
root -0.321268 18.6494 17.8242 -160.581 -16.9089 184.154
lowerback -27.6131 -5.46561 -10.0569
upperback -0.232023 -4.44377 0.378167
thorax 15.1339 -2.88062 4.08813
lowerneck -2.94322 -4.83454 -1.644
upperneck 21.1108 -9.75326 6.86035
head 7.37377 -4.92137 1.69944
rclavicle -2.92213e-014 3.18055e-014
rhumerus -47.306 -20.0156 -71.1227
rradius 31.5838
rwrist -2.2785
rhand -2.31375 -55.3521
rfingers 7.12502
rthumb 23.3724 -83.953
lclavicle -2.92213e-014 3.18055e-014
lhumerus -34.694 -7.89928 76.3615
lradius 35.5337
lwrist 3.22649
lhand -20.0541 -10.9291
lfingers 7.12502
lthumb 6.2876 18.9576
rfemur -42.8303 4.36715 1.8013
rtibia 7.6661
rfoot 3.35342 -25.66
rtoes -19.2408
lfemur -21.7441 -19.0615 -11.4678
ltibia 37.7164
lfoot -30.7529 -8.79843
ltoes 14.0221
140
root -0.29116 18.6277 17.739 -160.664 -17.0828 184.154
lowerback -27.6084 -5.51146 -10.0737
upperback -0.257829 -4.50088 0.355183
thorax 15.1081 -2.90596 4.04891
lowerneck -3.07811 -4.93866 -1.48922
upperneck 21.5361 -10.0309 6.85528
head 7.54592 -5.05182 1.63666
rclavicle 4.63168e-014 3.02153e-014
rhumerus -47.6647 -20.1114 -70.7039
rradius 31.3973
rwrist -2.3036
rhand -2.12758 -55.4549
rfingers 7.12502
rthumb 23.551 -84.033
lclavicle 4.63168e-014 3.02153e-014
lhumerus -34.8555 -8.13036 76.1998
lradius 35.9185
lwrist 3.30244
lhand -19.943 -10.9234
lfingers 7.12502
lthumb 6.39483 18.96
rfemur -42.6693 4.82713 1.08926
rtibia 7.06738
rfoot 2.97672 -26.9023
rtoes -17.4109
lfemur -21.3381 -19.2515 -11.348
ltibia 37.7113
lfoot -31.0446 -8.66093
ltoes 13.4607
141
root -0.25862 18.6042 17.6496 -160.677 -17.2554 184.145
lowerback -27.6603 -5.54219 -10.1218
upperback -0.329947 -4.52981 0.327873
thorax 15.0509 -2.92099 4.03035
lowerneck -3.29526 -4.98105 -1.31854
upperneck 22.3215 -10.2754 6.70365
head 7.84361 -5.17861 1.51618
rclavicle -3.97569e-016 3.33958e-014
rhumerus -48.3325 -20.1659 -70.3226
rradius 31.5549
rwrist -2.3686
rhand -2.31581 -55.4815
rfingers 7.12502
rthumb 23.3705 -84.0826
lclavicle -3.97569e-016 3.33958e-014
lhumerus -35.0886 -8.41983 76.0517
lradius 36.3056
lwrist 3.31028
lhand -19.9221 -10.94
lfingers 7.12502
lthumb 6.41498 18.9428
rfemur -42.6107 4.97355 0.61316
rtibia 6.56569
rfoot 2.99957 -27.8528
rtoes -16.4476
lfemur -20.986 -19.331 -11.2152
ltibia 37.705
lfoot -31.357 -8.20874
ltoes 11.2784
142
root -0.222577 18.5803 17.5567 -160.654 -17.4154 184.171
lowerback -27.745 -5.60474 -10.1628
upperback -0.393744 -4.6033 0.341961
thorax 15.0297 -2.95749 4.03277
lowerneck -2.94747 -5.03022 -1.21148
upperneck 21.91 -10.2233 6.5266
head 7.62632 -5.16639 1.46688
rclavicle 2.31584e-014 0
rhumerus -48.9985 -20.3182 -69.865
rradius 31.7867
rwrist -2.18186
rhand -2.89083 -55.7746
rfingers 7.12502
rthumb 22.8187 -84.4448
lclavicle 2.31584e-014 0
lhumerus -35.2266 -8.79257 75.9272
lradius 36.6004
lwrist 3.41257
lhand -20.0735 -10.9398
lfingers 7.12502
lthumb 6.26885 18.9474
rfemur -42.5707 5.25139 0.131243
rtibia 6.02853
rfoot 2.96064 -29.0031
rtoes -15.7022
lfemur -20.5747 -19.4246 -11.0034
ltibia 37.5166
lfoot -31.564 -8.1609
ltoes 11.1443
